<svg width="50" height="49" viewBox="0 0 50 49" fill="none" xmlns="http://www.w3.org/2000/svg">
<rect x="2" y="2" width="46" height="45" rx="5" stroke="#F27A53" stroke-width="4"/>
<mask id="mask0" style="mask-type:alpha" maskUnits="userSpaceOnUse" x="8" y="5" width="33" height="39">
<path d="M24.6302 5.78656L24.5 5.70717L24.3698 5.78656L9.38723 14.9241L9.03726 15.1375L9.38723 15.351L24.3698 24.4885L24.4998 24.5678L24.6299 24.4886L25.3785 24.0334L25.3788 24.0332L39.6128 15.351L39.9627 15.1375L39.6128 14.9241L24.6302 5.78656ZM9.13301 17.9145L8.75 17.6739V18.1262V34.4302V34.5708L8.87009 34.6438L22.961 43.2136L23.3409 43.4446V43V26.9826V26.8448L23.2245 26.7712L22.5805 26.3642L22.5799 26.3638L9.13301 17.9145ZM40.25 18.1262V17.6738L39.867 17.9146L25.7761 26.7709L25.6591 26.8444V26.9826V27.7297V43V43.4446L26.039 43.2136L40.1299 34.6438L40.25 34.5708V34.4302V18.1262ZM15.3036 15.1375L24.5 9.52793L33.6964 15.1375L24.5 20.7471L15.3036 15.1375ZM12.0682 32.7685V23.6135L20.0227 28.615V37.6063L12.0682 32.7685ZM28.9773 28.615L36.9318 23.6135V32.7685L28.9773 37.6063V28.615Z" fill="black" stroke="black" stroke-width="0.5"/>
</mask>
<g mask="url(#mask0)">
<rect x="4" y="4" width="42" height="42" fill="#F27A53"/>
</g>
</svg>
